# File created by Blade
# Date/Time:  Wed Jan 21 17:41:14 2015
# Frame Rate: 120.000 fps
#------------------------------------------------------
:FULLY-SPECIFIED
:DEGREES
1133
root 13.789763 26.748129 -19.600429 -223.158800 71.766317 -298.930884
Spine 49.179272 -1.792291 -19.098476
Head -13.500886 -0.940687 15.887501
LeftShoulder 15.816769 -49.127593 21.384832
LeftArm 49.778851 -0.366235 -20.412724
LeftForeArm 6.141448 -0.000000 2.122736
LeftHand 6.243486 0.000000 50.543743
LeftHandThumb1 -26.253704 0.000000 33.147579
RightShoulder 1.950687 8.583932 -17.416239
RightArm 73.417420 31.696351 36.225733
RightForeArm -23.239771 -0.000000 11.512098
RightHand 1.000369 -0.000000 -71.528607
RightHandThumb1 -24.326973 -0.000000 -32.862282
LeftUpLeg -72.049971 -13.275321 -11.454770
LeftLeg 62.722511 -0.000000 -0.000000
LeftFoot -51.328879 17.087614 -14.945866
LeftToeBase 2.150784 -0.000000 -0.000000
RightUpLeg -23.333573 -6.605293 -2.571721
RightLeg 7.157305 -0.000000 -0.000000
RightFoot 11.040612 -31.656537 -5.369632
RightToeBase -0.735389 -0.000000 0.000000
1134
root 13.875067 26.886032 -19.605112 -223.298265 71.560602 -299.190409
Spine 49.543241 -1.701936 -18.923108
Head -13.755707 -1.091123 15.806359
LeftShoulder 15.004664 -49.028142 22.147845
LeftArm 50.240764 -1.270176 -21.716627
LeftForeArm 6.083937 -0.000000 2.707120
LeftHand 6.731558 -0.000000 52.507396
LeftHandThumb1 -26.253704 0.000000 33.147579
RightShoulder 1.848262 8.460483 -17.568972
RightArm 73.213618 32.185392 35.826297
RightForeArm -23.097930 -0.000000 11.439136
RightHand 0.929642 -0.000000 -71.577833
RightHandThumb1 -24.326973 -0.000000 -32.862282
LeftUpLeg -71.240093 -13.128141 -11.875458
LeftLeg 61.042516 -0.000000 -0.000000
LeftFoot -51.333881 16.816902 -14.871810
LeftToeBase 2.585778 -0.000000 -0.000000
RightUpLeg -23.286289 -6.689058 -2.819022
RightLeg 6.745197 -0.000000 -0.000000
RightFoot 8.477032 -31.673361 -3.532030
RightToeBase -0.394196 -0.000000 0.000000
1135
root 13.962726 27.030477 -19.611451 -223.382414 71.382637 -299.399201
Spine 49.908253 -1.598328 -18.652392
Head -13.995179 -1.410023 15.671830
LeftShoulder 14.325780 -48.875572 22.684954
LeftArm 50.793213 -2.145237 -22.878599
LeftForeArm 5.837947 -0.000000 3.524279
LeftHand 6.716860 -0.000000 54.926323
LeftHandThumb1 -26.253704 0.000000 33.147579
RightShoulder 1.740984 8.345566 -17.749153
RightArm 73.014108 32.720462 35.514707
RightForeArm -23.014799 -0.000000 11.372622
RightHand 0.885031 -0.000000 -71.647917
RightHandThumb1 -24.326973 -0.000000 -32.862282
LeftUpLeg -70.399301 -12.951358 -12.283293
LeftLeg 59.285367 -0.000000 -0.000000
LeftFoot -51.288466 16.501035 -14.745919
LeftToeBase 3.086285 -0.000000 -0.000000
RightUpLeg -23.268045 -6.769858 -3.051364
RightLeg 6.284691 -0.000000 -0.000000
RightFoot 5.304768 -31.760769 -1.403664
RightToeBase 0.453380 -0.000000 -0.000000
1136
root 14.054154 27.178976 -19.621479 -223.523706 71.181181 -299.622662
Spine 50.374522 -1.524587 -18.408838
Head -14.300732 -1.717091 15.499301
LeftShoulder 13.599758 -48.837803 23.214003
LeftArm 51.277673 -2.890273 -23.964500
LeftForeArm 5.684852 -0.000000 4.662425
LeftHand 6.545742 -0.000000 57.388124
LeftHandThumb1 -26.253704 0.000000 33.147579
RightShoulder 1.633291 8.255373 -17.963501
RightArm 72.902977 33.296356 35.303559
RightForeArm -22.859874 -0.000000 11.250072
RightHand 0.852219 -0.000000 -71.786137
RightHandThumb1 -24.326973 -0.000000 -32.862282
LeftUpLeg -69.483702 -12.910117 -12.603119
LeftLeg 57.435932 -0.000000 -0.000000
LeftFoot -51.230893 16.313800 -14.666217
LeftToeBase 3.512709 -0.000000 -0.000000
RightUpLeg -23.218831 -6.788074 -3.353221
RightLeg 5.826345 -0.000000 -0.000000
RightFoot 2.309485 -31.860694 0.307002
RightToeBase 0.758270 -0.000000 -0.000000
1137
root 14.141598 27.338599 -19.628471 -223.642230 71.039785 -299.960474
Spine 50.659829 -1.403195 -18.124848
Head -14.508526 -2.080996 15.384662
LeftShoulder 12.977804 -48.817802 23.644243
LeftArm 51.752887 -3.508555 -24.981105
LeftForeArm 5.254273 -0.000000 5.971791
LeftHand 6.033941 -0.000000 60.058109
LeftHandThumb1 -26.253704 0.000000 33.147579
RightShoulder 1.542364 8.155137 -18.157665
RightArm 72.766412 33.888875 35.127666
RightForeArm -22.784918 0.000000 11.124949
RightHand 0.855732 -0.000000 -71.928978
RightHandThumb1 -24.326973 -0.000000 -32.862282
LeftUpLeg -68.714850 -12.882843 -12.823473
LeftLeg 55.525800 -0.000000 -0.000000
LeftFoot -51.130364 16.205096 -14.583116
LeftToeBase 4.154981 -0.000000 -0.000000
RightUpLeg -23.379768 -6.581153 -3.676843
RightLeg 5.474649 -0.000000 -0.000000
RightFoot -0.159719 -32.095364 1.681475
RightToeBase 0.914635 -0.000000 -0.000000
1138
root 14.236765 27.502582 -19.639057 -223.955710 70.913468 -300.432411
Spine 51.065949 -1.225374 -17.880582
Head -14.811475 -2.401298 15.276676
LeftShoulder 12.265082 -48.605161 24.153810
LeftArm 52.392504 -4.358560 -25.991858
LeftForeArm 4.506244 -0.000000 7.364698
LeftHand 5.743175 -0.000000 62.796457
LeftHandThumb1 -26.253704 0.000000 33.147579
RightShoulder 1.492872 8.026773 -18.277509
RightArm 72.402111 34.523195 34.501572
RightForeArm -22.432685 -0.000000 11.135079
RightHand 0.597784 -0.000000 -71.965300
RightHandThumb1 -24.326973 -0.000000 -32.862282
LeftUpLeg -67.821499 -12.847343 -13.035739
LeftLeg 53.508950 -0.000000 -0.000000
LeftFoot -50.989034 16.088402 -14.519570
LeftToeBase 4.682456 -0.000000 -0.000000
RightUpLeg -23.518994 -6.368478 -4.051184
RightLeg 5.217822 -0.000000 -0.000000
RightFoot -2.451228 -32.455434 3.014634
RightToeBase 0.205897 -0.000000 -0.000000
1139
root 14.329381 27.672804 -19.651077 -224.218101 70.821266 -300.936212
Spine 51.376196 -1.037518 -17.581610
Head -15.119599 -2.706277 15.138666
LeftShoulder 11.533410 -48.478161 24.638958
LeftArm 53.100876 -5.356888 -27.405958
LeftForeArm 4.307913 -0.000000 8.943540
LeftHand 5.483094 -0.000000 64.787500
LeftHandThumb1 -26.253704 0.000000 33.147579
RightShoulder 1.370557 7.936404 -18.494268
RightArm 72.213322 35.144970 34.258699
RightForeArm -22.362213 -0.000000 11.019082
RightHand 0.501636 -0.000000 -72.030650
RightHandThumb1 -24.326973 -0.000000 -32.862282
LeftUpLeg -67.016336 -12.897921 -13.126810
LeftLeg 51.420794 -0.000000 -0.000000
LeftFoot -50.839235 16.044286 -14.535592
LeftToeBase 5.251819 -0.000000 -0.000000
RightUpLeg -23.843907 -6.165587 -4.404525
RightLeg 5.186627 -0.000000 -0.000000
RightFoot -4.996219 -32.711396 4.555132
RightToeBase -0.015884 -0.000000 0.000000
1140
root 14.426931 27.849280 -19.662876 -224.647165 70.779199 -301.592671
Spine 51.716757 -0.765753 -17.285759
Head -15.399925 -2.983388 15.048713
LeftShoulder 11.016641 -48.531951 24.929531
LeftArm 53.662889 -6.209803 -28.684368
LeftForeArm 4.326930 -0.000000 10.683765
LeftHand 5.660518 -0.000000 66.275379
LeftHandThumb1 -26.253704 0.000000 33.147579
RightShoulder 1.233189 7.896727 -18.808538
RightArm 72.101845 35.786382 34.308310
RightForeArm -22.457509 -0.000000 10.836287
RightHand 0.545588 0.000000 -72.088460
RightHandThumb1 -24.326973 -0.000000 -32.862282
LeftUpLeg -66.179540 -12.955610 -13.135349
LeftLeg 49.265251 -0.000000 -0.000000
LeftFoot -50.606779 16.080390 -14.567161
LeftToeBase 5.861710 -0.000000 -0.000000
RightUpLeg -24.248253 -5.993428 -4.720732
RightLeg 5.325434 -0.000000 -0.000000
RightFoot -7.696033 -32.764244 6.172556
RightToeBase 0.109290 -0.000000 -0.000000
1141
root 14.516860 28.032523 -19.679261 -225.029586 70.760343 -302.305016
Spine 51.965890 -0.497652 -16.980921
Head -15.742380 -3.253405 15.013581
LeftShoulder 10.426440 -48.654952 25.306232
LeftArm 54.252335 -7.080709 -30.237129
LeftForeArm 4.823250 -0.000000 12.594960
LeftHand 5.373369 -0.000000 67.364444
LeftHandThumb1 -26.253704 0.000000 33.147579
RightShoulder 1.066379 7.778180 -19.156526
RightArm 71.819418 36.447933 34.096033
RightForeArm -22.330964 -0.000000 10.720766
RightHand 0.524863 -0.000000 -72.183872
RightHandThumb1 -24.326973 -0.000000 -32.862282
LeftUpLeg -65.465461 -13.110223 -13.033566
LeftLeg 47.073475 -0.000000 -0.000000
LeftFoot -50.326121 16.177973 -14.696670
LeftToeBase 6.393448 -0.000000 -0.000000
RightUpLeg -24.874962 -5.973508 -4.958249
RightLeg 5.634781 -0.000000 -0.000000
RightFoot -10.406387 -32.596065 7.743396
RightToeBase 0.052956 -0.000000 -0.000000
1142
root 14.607548 28.221957 -19.696330 -225.577331 70.831064 -303.207156
Spine 52.225075 -0.082285 -16.629972
Head -16.227001 -3.477085 15.047382
LeftShoulder 9.897453 -48.959862 25.755974
LeftArm 54.770593 -7.816427 -31.817493
LeftForeArm 5.506273 -0.000000 14.442596
LeftHand 5.271083 -0.000000 68.020680
LeftHandThumb1 -26.253704 0.000000 33.147579
RightShoulder 0.823219 7.540083 -19.454696
RightArm 71.507569 37.210953 33.716817
RightForeArm -22.068704 -0.000000 10.625061
RightHand 0.488492 -0.000000 -72.153916
RightHandThumb1 -24.326973 -0.000000 -32.862282
LeftUpLeg -64.779094 -13.218839 -12.851273
LeftLeg 44.837589 -0.000000 -0.000000
LeftFoot -49.987978 16.321395 -14.860534
LeftToeBase 6.987603 -0.000000 -0.000000
RightUpLeg -25.604371 -5.989844 -5.119753
RightLeg 6.027588 -0.000000 -0.000000
RightFoot -13.068629 -32.206682 9.231413
RightToeBase 0.092100 -0.000000 -0.000000
1143
root 14.701262 28.409916 -19.716124 -226.204035 70.945597 -304.158382
Spine 52.478598 0.228644 -16.340509
Head -16.525416 -3.769776 14.888392
LeftShoulder 9.392885 -48.897884 26.051782
LeftArm 55.509348 -8.577342 -32.821687
LeftForeArm 6.120903 -0.000000 15.849688
LeftHand 5.209643 -0.000000 68.192064
LeftHandThumb1 -26.253704 0.000000 33.147579
RightShoulder 0.764231 7.655623 -19.830680
RightArm 70.993306 37.700350 33.311263
RightForeArm -21.883854 -0.000000 10.529090
RightHand 0.440191 -0.000000 -72.191817
RightHandThumb1 -24.326973 -0.000000 -32.862282
LeftUpLeg -64.051754 -13.366412 -12.576525
LeftLeg 42.552150 -0.000000 -0.000000
LeftFoot -49.649806 16.688987 -14.905812
LeftToeBase 7.677300 -0.000000 -0.000000
RightUpLeg -26.346407 -6.161071 -5.186816
RightLeg 6.428747 -0.000000 -0.000000
RightFoot -15.479363 -31.491629 10.505919
RightToeBase 0.123099 -0.000000 -0.000000
1144
root 14.792479 28.600860 -19.731888 -226.889019 71.190244 -305.209493
Spine 52.715629 0.672467 -15.960388
Head -16.918174 -3.853420 14.882466
LeftShoulder 8.905016 -49.166780 26.461731
LeftArm 56.177956 -9.017214 -33.789506
LeftForeArm 6.866712 -0.000000 16.833684
LeftHand 5.088720 0.000000 68.181160
LeftHandThumb1 -26.253704 0.000000 33.147579
RightShoulder 0.648030 7.653601 -20.157348
RightArm 70.440481 38.289011 32.764422
RightForeArm -21.507986 -0.000000 10.492375
RightHand 0.348979 0.000000 -72.175877
RightHandThumb1 -24.326973 -0.000000 -32.862282
LeftUpLeg -63.416670 -13.433301 -12.190620
LeftLeg 40.316060 -0.000000 -0.000000
LeftFoot -49.199978 17.000417 -15.091836
LeftToeBase 8.054284 -0.000000 -0.000000
RightUpLeg -27.197623 -6.365935 -5.093457
RightLeg 6.791955 -0.000000 -0.000000
RightFoot -17.562235 -30.516757 11.793597
RightToeBase -0.125543 -0.000000 0.000000
1145
root 14.879576 28.794719 -19.748929 -227.708773 71.505145 -306.444409
Spine 52.886702 1.111710 -15.612905
Head -17.264975 -4.074110 14.766506
LeftShoulder 8.380988 -49.630466 26.916481
LeftArm 56.740699 -9.070584 -34.354632
LeftForeArm 7.279794 -0.000000 17.361089
LeftHand 4.986182 -0.000000 67.555750
LeftHandThumb1 -26.253704 0.000000 33.147579
RightShoulder 0.638352 7.689763 -20.499876
RightArm 69.751599 38.860477 32.060982
RightForeArm -21.065777 -0.000000 10.476595
RightHand 0.259073 -0.000000 -72.219920
RightHandThumb1 -24.326973 -0.000000 -32.862282
LeftUpLeg -62.830836 -13.378735 -11.825158
LeftLeg 38.095235 -0.000000 -0.000000
LeftFoot -48.578684 17.225255 -15.390333
LeftToeBase 8.021154 -0.000000 -0.000000
RightUpLeg -28.121659 -6.550769 -4.915579
RightLeg 7.033589 -0.000000 -0.000000
RightFoot -19.341424 -29.644702 12.795651
RightToeBase -0.127704 -0.000000 0.000000
